<svg width="121" height="97" viewBox="0 0 121 97" fill="none" xmlns="http://www.w3.org/2000/svg">
<path id="right_front_bumper" d="M120 96.5C120.572 70.8379 118.093 56.8061 108 32.5C96.3208 25.0855 90.3851 21.1814 73 15C50.5 7 33.2765 4.01132 1 1.5C1.55225 4.21835 2.04026 6.87833 2.46784 9.5M120 96.5H96.5M120 96.5L112.148 63M2.46784 9.5C6.7353 35.6653 4.98384 58.015 1 96.5C7.21255 86.3384 12.8741 79.7819 30.5 79.5C44.4982 79.2761 58 89.5 62 96.5H96.5M2.46784 9.5C35.5217 14.0358 53.3852 19.0289 84 32.5M84 32.5C91.439 31.1 95.9722 30.9809 105 32.5L108.047 45.5M84 32.5L86.5391 45.5M96.5 96.5L89.957 63M86.5391 45.5C94.5496 43.766 99.2441 43.7007 108.047 45.5M86.5391 45.5L89.0781 58.5M108.047 45.5L111.094 58.5M89.0781 58.5H111.094M89.0781 58.5L89.957 63M111.094 58.5L112.148 63M89.957 63H112.148" stroke="black"/>
</svg>
