<svg width="505" height="204" viewBox="0 0 505 204" fill="none" xmlns="http://www.w3.org/2000/svg">
<path id="right_body" d="M41 59C29.8327 59.1303 23.946 60.2995 14 64C0.532773 105.387 -0.471968 123.939 2.00004 154C27.8654 160.363 42.3378 168.36 72 162C64.5 178 79.5 203.5 107.5 203.5C134.38 199.707 145.5 182 143 162L380.5 161.017C371.5 180.017 383.5 201 409.5 202.5C439 202.5 449 180 442 162.858H502C506.808 149.273 502 117.5 492.5 91.5C456.5 72.5 441 65.5 385 60.5C346.5 29 334.141 19.4503 295 9C175.735 -8.86023 110.606 1.18551 41 59Z" stroke="black"/>
</svg>
